#Comment line ignore any data following # character 
#Hierarchical Translation and Rotation (.htr) file 
[Header]	
#Header keywords are followed by a single value 
FileType HTR		#Single word string
DataType HTRS		#Translation followed by rotation and scale data
FileVersion 1		#integer
NumSegments 84		#integer
NumFrames 2		#integer
DataFrameRate 30		#integer, data frame rate in this file
EulerRotationOrder ZYX
CalibrationUnits mm
RotationUnits Degrees
GlobalAxisofGravity Y
BoneLengthAxis Y
ScaleFactor 1.00
[SegmentNames&Hierarchy]
#CHILD	PARENT
MASTER GLOBAL
root MASTER
chest root
L_mid_tent01 root
R_mid_tent01 root
spine01 root
Bip01_Neck chest
L_humerus chest
R_humerus chest
weapon_bone chest
Bip01_Head Bip01_Neck
eye_left_bone Bip01_Head
eye_right_bone Bip01_Head
L_forearm L_humerus
L_front_hand L_forearm
L_weapon_bone L_forearm
L_front_hand01_01 L_front_hand
L_front_hand02_01 L_front_hand
L_front_hand03_01 L_front_hand
L_front_hand01_02 L_front_hand01_01
L_front_hand02_02 L_front_hand02_01
L_front_hand03_02 L_front_hand03_01
R_forearm R_humerus
R_front_hand R_forearm
R_weapon_bone R_forearm
R_front_hand01_01 R_front_hand
R_front_hand02_01 R_front_hand
R_front_hand03_01 R_front_hand
R_front_hand01_02 R_front_hand01_01
R_front_hand02_02 R_front_hand02_01
R_front_hand03_02 R_front_hand03_01
null_rope01_connect L_mid_tent01
Rope1_Seg01 null_rope01_connect
Rope1_Seg02 Rope1_Seg01
Rope1_Seg03 Rope1_Seg02
Rope1_Seg04 Rope1_Seg03
Rope1_Seg05 Rope1_Seg04
Rope1_Seg06 Rope1_Seg05
Rope1_Seg07 Rope1_Seg06
Rope1_Seg09 Rope1_Seg07
L_mid_hand01 Rope1_Seg09
L_mid_hand02 Rope1_Seg09
L_mid_hand03 Rope1_Seg09
null_rope02_connect R_mid_tent01
Rope2_Seg01 null_rope02_connect
Rope2_Seg02 Rope2_Seg01
Rope2_Seg03 Rope2_Seg02
Rope2_Seg04 Rope2_Seg03
Rope2_Seg05 Rope2_Seg04
Rope2_Seg06 Rope2_Seg05
Rope2_Seg07 Rope2_Seg06
Rope2_Seg09 Rope2_Seg07
R_mid_hand01 Rope2_Seg09
R_mid_hand02 Rope2_Seg09
R_mid_hand03 Rope2_Seg09
spine02 spine01
spine03 spine02
pelvis spine03
null_rope03_connect pelvis
null_rope04_connect pelvis
Rope3_Seg01 null_rope03_connect
Rope3_Seg02 Rope3_Seg01
Rope3_Seg03 Rope3_Seg02
Rope3_Seg04 Rope3_Seg03
Rope3_Seg05 Rope3_Seg04
Rope3_Seg06 Rope3_Seg05
Rope3_Seg07 Rope3_Seg06
Rope3_Seg08 Rope3_Seg07
Rope3_Seg09 Rope3_Seg08
R_rear_hand01 Rope3_Seg09
R_rear_hand02 Rope3_Seg09
R_rear_hand03 Rope3_Seg09
Rope4_Seg01 null_rope04_connect
Rope4_Seg02 Rope4_Seg01
Rope4_Seg03 Rope4_Seg02
Rope4_Seg04 Rope4_Seg03
Rope4_Seg05 Rope4_Seg04
Rope4_Seg06 Rope4_Seg05
Rope4_Seg07 Rope4_Seg06
Rope4_Seg08 Rope4_Seg07
Rope4_Seg09 Rope4_Seg08
L_rear_hand01 Rope4_Seg09
L_rear_hand02 Rope4_Seg09
L_rear_hand03 Rope4_Seg09
[BasePosition]
#SegmentName Tx, Ty, Tz, Rx, Ry, Rz, BoneLength
MASTER 0.000000 0.000000 0.000000 -90.000000 0.000000 0.000000 10.000000 
root 0.000000 0.000000 0.000000 0.000000 0.000000 0.000000 10.000000 
chest 0.000000 0.000000 0.000000 0.000000 0.000000 0.000000 10.000000 
L_mid_tent01 0.000000 0.000000 0.000000 0.000000 0.000000 0.000000 10.000000 
R_mid_tent01 0.000000 0.000000 0.000000 0.000000 0.000000 0.000000 10.000000 
spine01 0.000000 0.000000 0.000000 0.000000 0.000000 0.000000 10.000000 
Bip01_Neck 0.000000 0.000000 0.000000 0.000000 0.000000 0.000000 10.000000 
L_humerus 0.000000 0.000000 0.000000 0.000000 0.000000 0.000000 10.000000 
R_humerus 0.000000 0.000000 0.000000 0.000000 0.000000 0.000000 10.000000 
weapon_bone 0.000000 0.000000 0.000000 0.000000 0.000000 0.000000 10.000000 
Bip01_Head 0.000000 0.000000 0.000000 0.000000 0.000000 0.000000 10.000000 
eye_left_bone 0.000000 0.000000 0.000000 0.000000 0.000000 0.000000 10.000000 
eye_right_bone 0.000000 0.000000 0.000000 0.000000 0.000000 0.000000 10.000000 
L_forearm 0.000000 0.000000 0.000000 0.000000 0.000000 0.000000 10.000000 
L_front_hand 0.000000 0.000000 0.000000 0.000000 0.000000 0.000000 10.000000 
L_weapon_bone 0.000000 0.000000 0.000000 0.000000 0.000000 0.000000 10.000000 
L_front_hand01_01 0.000000 0.000000 0.000000 0.000000 0.000000 0.000000 10.000000 
L_front_hand02_01 0.000000 0.000000 0.000000 0.000000 0.000000 0.000000 10.000000 
L_front_hand03_01 0.000000 0.000000 0.000000 0.000000 0.000000 0.000000 10.000000 
L_front_hand01_02 0.000000 0.000000 0.000000 0.000000 0.000000 0.000000 10.000000 
L_front_hand02_02 0.000000 0.000000 0.000000 0.000000 0.000000 0.000000 10.000000 
L_front_hand03_02 0.000000 0.000000 0.000000 0.000000 0.000000 0.000000 10.000000 
R_forearm 0.000000 0.000000 0.000000 0.000000 0.000000 0.000000 10.000000 
R_front_hand 0.000000 0.000000 0.000000 0.000000 0.000000 0.000000 10.000000 
R_weapon_bone 0.000000 0.000000 0.000000 0.000000 0.000000 0.000000 10.000000 
R_front_hand01_01 0.000000 0.000000 0.000000 0.000000 0.000000 0.000000 10.000000 
R_front_hand02_01 0.000000 0.000000 0.000000 0.000000 0.000000 0.000000 10.000000 
R_front_hand03_01 0.000000 0.000000 0.000000 0.000000 0.000000 0.000000 10.000000 
R_front_hand01_02 0.000000 0.000000 0.000000 0.000000 0.000000 0.000000 10.000000 
R_front_hand02_02 0.000000 0.000000 0.000000 0.000000 0.000000 0.000000 10.000000 
R_front_hand03_02 0.000000 0.000000 0.000000 0.000000 0.000000 0.000000 10.000000 
null_rope01_connect 0.000000 0.000000 0.000000 0.000000 0.000000 0.000000 10.000000 
Rope1_Seg01 0.000000 0.000000 0.000000 0.000000 0.000000 0.000000 10.000000 
Rope1_Seg02 0.000000 0.000000 0.000000 0.000000 0.000000 0.000000 10.000000 
Rope1_Seg03 0.000000 0.000000 0.000000 0.000000 0.000000 0.000000 10.000000 
Rope1_Seg04 0.000000 0.000000 0.000000 0.000000 0.000000 0.000000 10.000000 
Rope1_Seg05 0.000000 0.000000 0.000000 0.000000 0.000000 0.000000 10.000000 
Rope1_Seg06 0.000000 0.000000 0.000000 0.000000 0.000000 0.000000 10.000000 
Rope1_Seg07 0.000000 0.000000 0.000000 0.000000 0.000000 0.000000 10.000000 
Rope1_Seg09 0.000000 0.000000 0.000000 0.000000 0.000000 0.000000 10.000000 
L_mid_hand01 0.000000 0.000000 0.000000 0.000000 0.000000 0.000000 10.000000 
L_mid_hand02 0.000000 0.000000 0.000000 0.000000 0.000000 0.000000 10.000000 
L_mid_hand03 0.000000 0.000000 0.000000 0.000000 0.000000 0.000000 10.000000 
null_rope02_connect 0.000000 0.000000 0.000000 0.000000 0.000000 0.000000 10.000000 
Rope2_Seg01 0.000000 0.000000 0.000000 0.000000 0.000000 0.000000 10.000000 
Rope2_Seg02 0.000000 0.000000 0.000000 0.000000 0.000000 0.000000 10.000000 
Rope2_Seg03 0.000000 0.000000 0.000000 0.000000 0.000000 0.000000 10.000000 
Rope2_Seg04 0.000000 0.000000 0.000000 0.000000 0.000000 0.000000 10.000000 
Rope2_Seg05 0.000000 0.000000 0.000000 0.000000 0.000000 0.000000 10.000000 
Rope2_Seg06 0.000000 0.000000 0.000000 0.000000 0.000000 0.000000 10.000000 
Rope2_Seg07 0.000000 0.000000 0.000000 0.000000 0.000000 0.000000 10.000000 
Rope2_Seg09 0.000000 0.000000 0.000000 0.000000 0.000000 0.000000 10.000000 
R_mid_hand01 0.000000 0.000000 0.000000 0.000000 0.000000 0.000000 10.000000 
R_mid_hand02 0.000000 0.000000 0.000000 0.000000 0.000000 0.000000 10.000000 
R_mid_hand03 0.000000 0.000000 0.000000 0.000000 0.000000 0.000000 10.000000 
spine02 0.000000 0.000000 0.000000 0.000000 0.000000 0.000000 10.000000 
spine03 0.000000 0.000000 0.000000 0.000000 0.000000 0.000000 10.000000 
pelvis 0.000000 0.000000 0.000000 0.000000 0.000000 0.000000 10.000000 
null_rope03_connect 0.000000 0.000000 0.000000 0.000000 0.000000 0.000000 10.000000 
null_rope04_connect 0.000000 0.000000 0.000000 0.000000 0.000000 0.000000 10.000000 
Rope3_Seg01 0.000000 0.000000 0.000000 0.000000 0.000000 0.000000 10.000000 
Rope3_Seg02 0.000000 0.000000 0.000000 0.000000 0.000000 0.000000 10.000000 
Rope3_Seg03 0.000000 0.000000 0.000000 0.000000 0.000000 0.000000 10.000000 
Rope3_Seg04 0.000000 0.000000 0.000000 0.000000 0.000000 0.000000 10.000000 
Rope3_Seg05 0.000000 0.000000 0.000000 0.000000 0.000000 0.000000 10.000000 
Rope3_Seg06 0.000000 0.000000 0.000000 0.000000 0.000000 0.000000 10.000000 
Rope3_Seg07 0.000000 0.000000 0.000000 0.000000 0.000000 0.000000 10.000000 
Rope3_Seg08 0.000000 0.000000 0.000000 0.000000 0.000000 0.000000 10.000000 
Rope3_Seg09 0.000000 0.000000 0.000000 0.000000 0.000000 0.000000 10.000000 
R_rear_hand01 0.000000 0.000000 0.000000 0.000000 0.000000 0.000000 10.000000 
R_rear_hand02 0.000000 0.000000 0.000000 0.000000 0.000000 0.000000 10.000000 
R_rear_hand03 0.000000 0.000000 0.000000 0.000000 0.000000 0.000000 10.000000 
Rope4_Seg01 0.000000 0.000000 0.000000 0.000000 0.000000 0.000000 10.000000 
Rope4_Seg02 0.000000 0.000000 0.000000 0.000000 0.000000 0.000000 10.000000 
Rope4_Seg03 0.000000 0.000000 0.000000 0.000000 0.000000 0.000000 10.000000 
Rope4_Seg04 0.000000 0.000000 0.000000 0.000000 0.000000 0.000000 10.000000 
Rope4_Seg05 0.000000 0.000000 0.000000 0.000000 0.000000 0.000000 10.000000 
Rope4_Seg06 0.000000 0.000000 0.000000 0.000000 0.000000 0.000000 10.000000 
Rope4_Seg07 0.000000 0.000000 0.000000 0.000000 0.000000 0.000000 10.000000 
Rope4_Seg08 0.000000 0.000000 0.000000 0.000000 0.000000 0.000000 10.000000 
Rope4_Seg09 0.000000 0.000000 0.000000 0.000000 0.000000 0.000000 10.000000 
L_rear_hand01 0.000000 0.000000 0.000000 0.000000 0.000000 0.000000 10.000000 
L_rear_hand02 0.000000 0.000000 0.000000 0.000000 0.000000 0.000000 10.000000 
L_rear_hand03 0.000000 0.000000 0.000000 0.000000 0.000000 0.000000 10.000000 
#Beginning of Data. Separated by tabs
#Fr	Tx	Ty	Tz	Rx	Ry	Rz	SF
[MASTER]
3 -259.060303 53.006100 0.000000 0.001653 0.001667 -0.492911 264.427460
4 -537.948914 42.944759 0.000000 0.001644 0.001675 -1.076515 539.660339
[root]
3 -18.284691 -62.822117 1393.368042 -104.239182 -28.139803 -87.018875 1394.903320
4 -20.649910 -62.822117 1288.852783 -108.659294 -29.077682 -85.912521 1290.548218
[chest]
3 -84.512650 -34.090519 0.000000 -7.670233 -9.269011 -174.464157 91.129311
4 -84.512650 -34.090519 0.000000 -6.663556 -13.237303 -172.845718 91.129311
[L_mid_tent01]
3 27.320251 22.165552 -250.051590 5.610118 39.094631 84.828041 252.514359
4 27.309875 22.171530 -249.984787 3.862628 36.229202 81.347610 252.447617
[R_mid_tent01]
3 23.228794 24.509907 226.238495 158.908569 -48.657310 88.795799 228.744751
4 23.228794 24.509907 226.238495 160.432037 -47.061241 87.899765 228.744751
[spine01]
3 -0.361383 -0.195265 0.000000 0.810369 0.452559 15.173538 0.410763
4 -0.361383 -0.195265 0.000000 0.772828 0.452047 14.990466 0.410763
[Bip01_Neck]
3 165.484543 71.581718 0.000119 175.896118 1.177290 24.871183 180.302734
4 165.484543 71.581718 0.000119 175.896118 1.177290 24.871183 180.302734
[L_humerus]
3 -13.983130 -135.272980 -120.471481 -171.234024 81.563431 -84.376221 181.680161
4 -13.983130 -135.272980 -120.471481 -166.117096 81.438461 -80.135887 181.680161
[R_humerus]
3 -13.983309 -135.273102 125.287651 -167.282639 -69.368042 -96.424866 184.909012
4 -13.983309 -135.273102 125.287651 -169.567215 -69.448128 -94.984245 184.909012
[weapon_bone]
3 235.964890 -300.705902 0.000000 0.000000 -89.951546 -128.212341 382.234833
4 235.964890 -300.705902 0.000000 0.000000 -89.951546 -128.212341 382.234833
[Bip01_Head]
3 260.217987 110.849464 -10.017876 2.030761 5.834634 -63.676254 283.021851
4 259.112244 112.604408 -16.238136 1.846460 5.818497 -64.150696 282.988647
[eye_left_bone]
3 -24.626970 125.451866 -64.772606 0.000000 -90.000000 -99.840431 143.318359
4 -24.626970 125.451866 -64.772606 0.000000 -90.000000 -99.840431 143.318359
[eye_right_bone]
3 -24.626970 125.451866 64.327362 0.000000 -89.960434 80.159386 143.117676
4 -24.626970 125.451866 64.327362 0.000000 -89.960434 80.159386 143.117676
[L_forearm]
3 322.776093 0.000000 -0.000119 0.000643 0.002257 -58.207199 322.776093
4 322.776093 0.000000 -0.000119 0.000616 0.002265 -59.593025 322.776093
[L_front_hand]
3 241.149185 -0.042021 -3.300071 -178.917038 -1.995711 -19.968737 241.171753
4 241.149185 -0.042021 -3.300071 -179.153839 -2.104036 -13.295674 241.171753
[L_weapon_bone]
3 156.183838 0.000000 0.000000 0.001802 0.001504 10.327425 156.183838
4 156.183838 0.000000 0.000000 0.001928 0.001352 19.914227 156.183838
[L_front_hand01_01]
3 86.095154 20.947098 -0.655860 -0.345630 -0.486632 72.985954 88.609184
4 86.095154 20.947098 -0.655860 -0.358019 -0.483663 74.277168 88.609184
[L_front_hand02_01]
3 86.935165 -11.437475 24.513514 150.809296 -58.778587 -57.192558 91.046425
4 86.935165 -11.437475 24.513514 152.710815 -59.393673 -59.407352 91.046425
[L_front_hand03_01]
3 86.637497 -14.123976 -20.424902 -150.571686 56.997833 -58.742687 90.126129
4 86.637497 -14.123976 -20.424902 -152.345215 57.619305 -60.852303 90.126129
[L_front_hand01_02]
3 71.020905 -0.000179 0.000030 0.000334 -0.002323 -106.379379 71.020905
4 71.020905 -0.000179 0.000030 0.001534 0.001777 -8.378850 71.020905
[L_front_hand02_02]
3 71.020927 -0.000119 0.000060 0.000334 -0.002323 -106.379379 71.020927
4 71.020927 -0.000119 0.000060 0.001534 0.001777 -8.378850 71.020927
[L_front_hand03_02]
3 71.020905 -0.000060 0.000060 0.000334 -0.002323 -106.379379 71.020905
4 71.020905 -0.000060 0.000060 0.001534 0.001777 -8.378850 71.020905
[R_forearm]
3 322.776428 -0.000060 0.000030 0.200619 -0.073133 -71.327278 322.776428
4 322.776428 -0.000060 0.000030 0.200812 -0.072599 -71.631935 322.776428
[R_front_hand]
3 238.847015 -0.006795 2.210259 -1.222059 1.216790 -33.884575 238.857239
4 238.847015 -0.006795 2.210259 -1.021912 1.390247 -25.106562 238.857239
[R_weapon_bone]
3 155.664093 0.002503 -0.000030 0.003147 0.001909 -116.102425 155.664078
4 155.664093 0.002503 -0.000030 0.003052 0.002057 -121.554924 155.664078
[R_front_hand01_01]
3 87.624611 14.231146 22.918642 -151.019943 -58.847031 57.544685 91.683487
4 87.624611 14.231146 22.918642 -154.633499 -59.950619 61.746044 91.683487
[R_front_hand02_01]
3 89.356956 14.367283 -19.491137 151.211227 57.208401 59.740421 92.579636
4 89.356956 14.367283 -19.491137 154.602661 58.302849 63.744389 92.579636
[R_front_hand03_01]
3 87.286232 -22.307278 -0.143439 0.142368 -0.428417 -73.368439 90.091743
4 87.286232 -22.307278 -0.143439 0.162155 -0.423168 -75.767921 90.091743
[R_front_hand01_02]
3 71.020905 0.000060 0.000119 0.002323 -0.000334 106.381386 71.020905
4 71.020905 0.000060 0.000119 0.001777 0.001534 8.377220 71.020905
[R_front_hand02_02]
3 71.020844 -0.000030 -0.000119 0.002323 -0.000334 106.381386 71.020836
4 71.020844 -0.000030 -0.000119 0.001777 0.001534 8.377220 71.020836
[R_front_hand03_02]
3 71.020905 0.000000 0.000030 0.002323 -0.000334 106.381386 71.020905
4 71.020905 0.000000 0.000030 0.001777 0.001534 8.377220 71.020905
[null_rope01_connect]
3 328.732483 0.000000 -0.000238 -142.290222 -38.212326 179.860245 328.732483
4 328.732483 0.000000 -0.000238 -141.650925 -37.304314 -176.468384 328.732483
[Rope1_Seg01]
3 0.000000 0.000000 0.000000 133.995728 47.453644 168.697144 0.000000
4 0.000000 0.000000 0.000000 128.221237 26.975040 -175.004715 0.000000
[Rope1_Seg02]
3 139.999863 -0.000179 0.000000 0.292036 -11.161803 8.538154 139.999863
4 139.999863 -0.000179 0.000000 9.781493 -24.747599 1.133540 139.999863
[Rope1_Seg03]
3 139.999924 0.000060 -0.000060 -0.912031 -7.613750 10.485941 139.999924
4 139.999924 0.000060 -0.000060 1.840732 -14.029255 3.488609 139.999924
[Rope1_Seg04]
3 139.999924 -0.000060 -0.000119 -4.977913 -25.772329 12.835814 139.999924
4 139.999924 -0.000060 -0.000119 -1.988793 -26.388071 6.811706 139.999924
[Rope1_Seg05]
3 139.999832 0.000119 -0.000060 -6.640985 -16.794355 4.043025 139.999832
4 139.999832 0.000119 -0.000060 -4.846613 -18.127466 4.184353 139.999832
[Rope1_Seg06]
3 139.999954 0.000119 -0.000060 -2.870799 -5.592921 1.117697 139.999954
4 139.999954 0.000119 -0.000060 -2.558034 -6.569068 1.005722 139.999954
[Rope1_Seg07]
3 139.999985 0.000060 0.000000 -1.886571 -3.171550 0.469549 139.999985
4 139.999985 0.000060 0.000000 -1.743903 -3.781641 0.410616 139.999985
[Rope1_Seg09]
3 121.602913 0.000119 -0.000089 -89.793175 -1.359789 0.847147 121.602913
4 121.602913 0.000119 -0.000089 -89.793175 -1.359789 0.847147 121.602913
[L_mid_hand01]
3 103.859421 1.038730 8.195221 111.431305 -47.263851 -16.612017 104.187431
4 103.859421 1.038730 8.195221 111.431305 -47.263851 -16.612017 104.187431
[L_mid_hand02]
3 105.572853 -4.139662 -10.864139 -150.709808 35.166882 -45.161087 106.211075
4 105.572853 -4.139662 -10.864139 -150.709808 35.166882 -45.161087 106.211075
[L_mid_hand03]
3 104.641464 17.579376 -3.913581 -12.649597 13.975001 50.985863 106.179977
4 104.641464 17.579376 -3.913581 -12.649596 13.974999 50.985855 106.179977
[null_rope02_connect]
3 328.732849 0.000179 -0.000119 -114.858536 47.904839 29.723190 328.732849
4 328.732849 0.000179 -0.000119 -109.926537 52.747803 34.515465 328.732849
[Rope2_Seg01]
3 -0.000073 0.000134 0.000153 -56.435078 26.326401 27.492805 0.000216
4 -0.000072 0.000134 0.000153 -50.594013 11.309247 9.405370 0.000215
[Rope2_Seg02]
3 139.999741 -0.000060 -0.000119 -2.753715 -8.189429 10.160709 139.999756
4 139.999741 -0.000060 -0.000119 -9.420131 -6.581275 18.713478 139.999756
[Rope2_Seg03]
3 140.000107 0.000030 0.000000 -1.887749 -2.840222 11.208749 140.000107
4 140.000107 0.000030 0.000000 -5.386789 -2.454841 16.936050 140.000107
[Rope2_Seg04]
3 139.999802 0.000000 -0.000060 -2.013352 -23.009867 9.036345 139.999802
4 139.999802 0.000000 -0.000060 -1.725923 -20.832560 9.486772 139.999802
[Rope2_Seg05]
3 139.999985 -0.000060 0.000119 -2.531647 -15.607433 2.525819 139.999985
4 139.999985 -0.000060 0.000119 -1.547844 -15.438995 2.812224 139.999985
[Rope2_Seg06]
3 139.999893 -0.000030 -0.000119 -1.012983 -5.598867 1.204981 139.999893
4 139.999893 -0.000030 -0.000119 -0.569174 -5.809294 1.684605 139.999893
[Rope2_Seg07]
3 139.999893 0.000060 -0.000060 -0.719119 -3.254084 0.640567 139.999893
4 139.999893 0.000060 -0.000060 -0.403361 -3.442752 0.963802 139.999893
[Rope2_Seg09]
3 121.338966 0.000089 -0.000060 33.793236 -1.359788 -0.847141 121.338966
4 121.338966 0.000089 -0.000060 33.793236 -1.359788 -0.847141 121.338966
[R_mid_hand01]
3 104.680779 11.144459 -10.335981 -34.269650 35.095989 42.885235 105.778534
4 104.680779 11.144459 -10.335981 -34.269650 35.095989 42.885235 105.778534
[R_mid_hand02]
3 104.070427 2.443552 8.231699 68.449066 -47.537163 16.779839 104.424065
4 104.070427 2.443552 8.231699 68.449066 -47.537163 16.779839 104.424065
[R_mid_hand03]
3 106.028137 -11.221827 -5.996406 -171.106766 13.128626 -52.726494 106.788818
4 106.028137 -11.221827 -5.996406 -171.106766 13.128626 -52.726494 106.788818
[spine02]
3 129.756927 0.001550 0.000119 -0.245655 -4.136406 -4.395092 129.756927
4 129.756927 0.001550 0.000119 -0.242545 -4.161255 -4.454617 129.756927
[spine03]
3 78.629509 0.084625 -4.745341 0.509876 4.091187 -3.652824 78.772621
4 78.637367 0.083221 -4.668612 0.603577 3.930426 -2.798655 78.775871
[pelvis]
3 169.435242 0.051022 0.000000 -55.065281 -4.154349 -3.380506 169.435257
4 169.435242 0.051022 0.000000 -98.636833 -6.949345 -0.725423 169.435257
[null_rope03_connect]
3 -1.257226 -2.466202 137.391083 -158.257202 -22.862053 -84.735443 137.418976
4 -1.257226 -2.466202 137.391083 -156.228745 24.666533 -82.391106 137.418976
[null_rope04_connect]
3 -1.259640 -2.480268 -137.844437 -158.257202 -22.862053 -84.735443 137.872513
4 -1.259640 -2.480268 -137.844437 -156.228745 24.666533 -82.391106 137.872513
[Rope3_Seg01]
3 0.000000 0.000000 0.000000 -131.968506 -6.787822 -60.435802 0.000000
4 0.000000 0.000000 0.000000 -131.006271 9.285422 -78.922371 0.000000
[Rope3_Seg02]
3 139.999924 -0.000119 0.000060 20.790043 -35.776539 -9.639430 139.999924
4 139.999924 -0.000119 0.000060 -8.208415 -25.208376 22.842199 139.999924
[Rope3_Seg03]
3 139.999924 -0.000119 0.000119 60.208015 -62.027489 4.944634 139.999924
4 139.999924 -0.000119 0.000119 -30.013763 -47.180893 49.892941 139.999924
[Rope3_Seg04]
3 139.999924 0.000119 0.000000 8.665730 -2.502719 38.794331 139.999924
4 139.999924 0.000119 0.000000 -13.065657 -23.993877 31.073444 139.999924
[Rope3_Seg05]
3 139.999924 -0.000238 0.000060 0.448278 1.403647 11.267724 139.999924
4 139.999924 -0.000238 0.000060 -2.376462 -6.292119 5.990736 139.999924
[Rope3_Seg06]
3 139.999893 -0.000119 -0.000060 0.241521 0.324154 4.311069 139.999893
4 139.999893 -0.000119 -0.000060 -0.613085 -2.821016 2.258008 139.999893
[Rope3_Seg07]
3 139.999771 0.000060 -0.000119 0.327906 0.206935 2.598967 139.999771
4 139.999771 0.000060 -0.000119 -0.117959 -1.738006 1.363700 139.999771
[Rope3_Seg08]
3 139.999985 -0.000060 0.000000 0.408962 0.129789 1.515553 139.999985
4 139.999985 -0.000060 0.000000 0.172557 -1.023343 0.801360 139.999985
[Rope3_Seg09]
3 90.185997 -0.000179 -0.000060 89.793228 -1.359877 -0.847183 90.185997
4 90.185997 -0.000179 -0.000060 89.793228 -1.359877 -0.847183 90.185997
[R_rear_hand01]
3 103.366196 -6.073594 -10.757982 -166.970291 21.129854 -46.704182 104.101845
4 103.366196 -6.073594 -10.757982 -166.970291 21.129850 -46.704182 104.101845
[R_rear_hand02]
3 100.509819 12.039542 -7.992327 -28.148869 27.804199 44.102722 101.543350
4 100.509819 12.039542 -7.992327 -28.148869 27.804199 44.102722 101.543350
[R_rear_hand03]
3 101.539970 5.215704 5.435467 81.628395 -47.127728 10.016968 101.819031
4 101.539970 5.215704 5.435467 81.628380 -47.127724 10.016966 101.819031
[Rope4_Seg01]
3 -0.000018 -0.000070 -0.000153 52.158527 -35.984421 -106.889145 0.000169
4 -0.000018 -0.000067 -0.000153 36.702274 -47.491833 -81.453522 0.000168
[Rope4_Seg02]
3 139.999985 0.000060 0.000119 5.097264 -21.246107 20.116413 139.999985
4 139.999985 0.000060 0.000119 -2.009485 -3.444892 19.750677 139.999985
[Rope4_Seg03]
3 139.999924 0.000000 -0.000238 8.994439 -28.867105 49.425022 139.999924
4 139.999924 0.000000 -0.000238 -12.599631 -6.753300 44.074741 139.999924
[Rope4_Seg04]
3 139.999985 0.000000 0.000119 5.254271 -5.653879 21.040422 139.999985
4 139.999985 0.000000 0.000119 -12.669844 -8.149994 29.436893 139.999985
[Rope4_Seg05]
3 139.999802 -0.000060 -0.000119 3.238413 -9.106860 14.886114 139.999802
4 139.999802 -0.000060 -0.000119 -5.063811 -10.307261 9.928453 139.999802
[Rope4_Seg06]
3 139.999924 0.000000 0.000060 3.959415 -10.974038 17.556503 139.999924
4 139.999924 0.000000 0.000060 -3.215801 -15.773682 7.574508 139.999924
[Rope4_Seg07]
3 139.999802 0.000000 0.000000 2.656064 -4.046976 10.063838 139.999802
4 139.999802 0.000000 0.000000 -0.488740 -11.940071 6.112353 139.999802
[Rope4_Seg08]
3 139.999924 0.000000 0.000119 -0.087817 -1.915374 5.644271 139.999924
4 139.999924 0.000000 0.000119 -1.005628 -6.308630 3.619136 139.999924
[Rope4_Seg09]
3 90.185791 0.000060 0.000060 -135.617828 2.228885 0.850567 90.185791
4 90.185791 0.000060 0.000060 -135.617828 2.228885 0.850567 90.185791
[L_rear_hand01]
3 101.696655 -8.392275 -7.654577 -27.705481 -28.251705 134.947800 102.329041
4 101.696655 -8.392275 -7.654577 -27.705481 -28.251705 134.947800 102.329041
[L_rear_hand02]
3 102.726799 -1.568258 5.773216 81.477219 48.065086 169.775513 102.900848
4 102.726799 -1.568258 5.773216 81.477219 48.065086 169.775513 102.900848
[L_rear_hand03]
3 104.552910 9.721220 -10.420293 -167.330078 -21.338425 -132.303940 105.519653
4 104.552910 9.721220 -10.420293 -167.330078 -21.338425 -132.303940 105.519653
